<?xml version="1.0" encoding="UTF-8" standalone="no"?>
<!-- Created with Inkscape (http://www.inkscape.org/) -->

<svg
   xmlns:dc="http://purl.org/dc/elements/1.1/"
   xmlns:cc="http://creativecommons.org/ns#"
   xmlns:rdf="http://www.w3.org/1999/02/22-rdf-syntax-ns#"
   xmlns:svg="http://www.w3.org/2000/svg"
   xmlns="http://www.w3.org/2000/svg"
   xmlns:sodipodi="http://sodipodi.sourceforge.net/DTD/sodipodi-0.dtd"
   xmlns:inkscape="http://www.inkscape.org/namespaces/inkscape"
   width="118"
   height="59"
   viewBox="0 0 31.220833 15.610418"
   version="1.1"
   id="svg1037"
   inkscape:version="0.92.2 2405546, 2018-03-11"
   sodipodi:docname="browser.svg">
  <defs
     id="defs1031" />
  <sodipodi:namedview
     id="base"
     pagecolor="#ffffff"
     bordercolor="#666666"
     borderopacity="1.0"
     inkscape:pageopacity="0.0"
     inkscape:pageshadow="2"
     inkscape:zoom="4.7994873"
     inkscape:cx="50.445199"
     inkscape:cy="39.649523"
     inkscape:document-units="px"
     inkscape:current-layer="layer1"
     showgrid="false"
     units="px"
     inkscape:window-width="1366"
     inkscape:window-height="740"
     inkscape:window-x="0"
     inkscape:window-y="28"
     inkscape:window-maximized="1" />
  <metadata
     id="metadata1034">
    <rdf:RDF>
      <cc:Work
         rdf:about="">
        <dc:format>image/svg+xml</dc:format>
        <dc:type
           rdf:resource="http://purl.org/dc/dcmitype/StillImage" />
        <dc:title></dc:title>
      </cc:Work>
    </rdf:RDF>
  </metadata>
  <g
     inkscape:label="Layer 1"
     inkscape:groupmode="layer"
     id="layer1"
     transform="translate(0,-281.38957)">
    <rect
       style="opacity:1;fill:#bdbdbd;fill-opacity:1;stroke:none;stroke-width:0.3704167;stroke-linecap:butt;stroke-linejoin:miter;stroke-miterlimit:4;stroke-dasharray:1.1112501, 1.1112501;stroke-dashoffset:0;stroke-opacity:1"
       id="rect1735"
       width="15.610417"
       height="15.610417"
       x="36.512501"
       y="281.38956" />
    <g
       id="g1740"
       transform="translate(0.20392036,0.2248559)">
      <circle
         r="6.6804214"
         cy="288.96991"
         cx="7.6012883"
         id="path4591"
         style="opacity:1;fill:none;fill-opacity:1;stroke:#878787;stroke-width:1.19124115;stroke-linecap:butt;stroke-linejoin:bevel;stroke-miterlimit:4;stroke-dasharray:none;stroke-dashoffset:0;stroke-opacity:1;paint-order:normal" />
      <path
         sodipodi:nodetypes="cssscccccccc"
         inkscape:connector-curvature="0"
         id="path5199"
         d="m 4.1113079,283.76671 c 0,0 1.158206,1.42143 0.789686,1.89526 -0.368516,0.47382 -0.389001,0.75319 -0.05263,1.15822 0.293102,0.35299 1.645345,1.67361 1.947906,1.84263 0.355188,0.19855 1.368793,0.73703 1.263501,-0.57914 -0.105309,-1.31612 -0.684403,-0.78966 0.315884,-1.68463 1.000269,-0.89502 1.421448,-0.89502 1.263498,-1.57942 -0.157942,-0.6844 -0.05263,-0.63172 0.4738151,-1.00024 0.526458,-0.36829 0.684409,-0.57913 0.684409,-0.57913 0,0 -1.6320271,-1.00024 -3.6325741,-0.78967 -2.000547,0.21071 -3.053461,1.31612 -3.053461,1.31612 z"
         style="opacity:1;fill:#878787;fill-opacity:1;stroke:none;stroke-width:1.19124115;stroke-linecap:butt;stroke-linejoin:miter;stroke-miterlimit:4;stroke-dasharray:none;stroke-dashoffset:0;stroke-opacity:1;paint-order:normal" />
      <path
         sodipodi:nodetypes="cccccccc"
         inkscape:connector-curvature="0"
         id="path5201"
         d="m 8.2176839,289.45248 c 1.000273,0.73703 1.8952511,1.57937 1.7899591,2.36908 -0.1053091,0.78966 -0.1579411,1.10555 -0.9476181,1.68468 -0.7897,0.57909 -0.737045,1.84258 -0.737045,1.84258 0,0 1.7899551,0.21071 2.6849371,-0.63172 0.894978,-0.84234 1.263503,-1.21086 1.210861,-2.63233 -0.05263,-1.42143 -0.263206,-1.89526 -1.526731,-2.31641 C 9.4285449,289.3474 8.2176839,289.4523 8.2176839,289.4523 Z"
         style="opacity:1;fill:#878787;fill-opacity:1;stroke:none;stroke-width:1.19124115;stroke-linecap:butt;stroke-linejoin:miter;stroke-miterlimit:4;stroke-dasharray:none;stroke-dashoffset:0;stroke-opacity:1;paint-order:normal" />
    </g>
    <g
       id="g1745"
       transform="translate(-0.06066179,0.2248559)">
      <circle
         style="opacity:1;fill:none;fill-opacity:1;stroke:#4551ca;stroke-width:1.19124115;stroke-linecap:butt;stroke-linejoin:bevel;stroke-miterlimit:4;stroke-dasharray:none;stroke-dashoffset:0;stroke-opacity:1;paint-order:normal"
         id="circle1729"
         cx="23.476288"
         cy="288.96991"
         r="6.6804214" />
      <path
         style="opacity:1;fill:#4551ca;fill-opacity:1;stroke:none;stroke-width:1.19124115;stroke-linecap:butt;stroke-linejoin:miter;stroke-miterlimit:4;stroke-dasharray:none;stroke-dashoffset:0;stroke-opacity:1;paint-order:normal"
         d="m 19.986309,283.76671 c 0,0 1.158206,1.42143 0.789686,1.89526 -0.368516,0.47382 -0.389001,0.75319 -0.05263,1.15822 0.293102,0.35299 1.645345,1.67361 1.947906,1.84263 0.355188,0.19855 1.368793,0.73703 1.263501,-0.57914 -0.105309,-1.31612 -0.684403,-0.78966 0.315884,-1.68463 1.000269,-0.89502 1.421448,-0.89502 1.263498,-1.57942 -0.157942,-0.6844 -0.05263,-0.63172 0.473815,-1.00024 0.526458,-0.36829 0.684409,-0.57913 0.684409,-0.57913 0,0 -1.632027,-1.00024 -3.632574,-0.78967 -2.000547,0.21071 -3.053461,1.31612 -3.053461,1.31612 z"
         id="path1731"
         inkscape:connector-curvature="0"
         sodipodi:nodetypes="cssscccccccc" />
      <path
         style="opacity:1;fill:#4551ca;fill-opacity:1;stroke:none;stroke-width:1.19124115;stroke-linecap:butt;stroke-linejoin:miter;stroke-miterlimit:4;stroke-dasharray:none;stroke-dashoffset:0;stroke-opacity:1;paint-order:normal"
         d="m 24.092685,289.45248 c 1.000273,0.73703 1.895251,1.57937 1.789959,2.36908 -0.105309,0.78966 -0.157941,1.10555 -0.947618,1.68468 -0.7897,0.57909 -0.737045,1.84258 -0.737045,1.84258 0,0 1.789955,0.21071 2.684937,-0.63172 0.894978,-0.84234 1.263503,-1.21086 1.210861,-2.63233 -0.05263,-1.42143 -0.263206,-1.89526 -1.526731,-2.31641 -1.263502,-0.42096 -2.474363,-0.31606 -2.474363,-0.31606 z"
         id="path1733"
         inkscape:connector-curvature="0"
         sodipodi:nodetypes="cccccccc" />
    </g>
  </g>
</svg>
