<?xml version="1.0" encoding="UTF-8" standalone="no"?>
<!-- Created with Inkscape (http://www.inkscape.org/) -->

<svg
   xmlns:dc="http://purl.org/dc/elements/1.1/"
   xmlns:cc="http://creativecommons.org/ns#"
   xmlns:rdf="http://www.w3.org/1999/02/22-rdf-syntax-ns#"
   xmlns:svg="http://www.w3.org/2000/svg"
   xmlns="http://www.w3.org/2000/svg"
   xmlns:sodipodi="http://sodipodi.sourceforge.net/DTD/sodipodi-0.dtd"
   xmlns:inkscape="http://www.inkscape.org/namespaces/inkscape"
   width="118"
   height="59"
   viewBox="0 0 31.220833 15.610418"
   version="1.1"
   id="svg1037"
   inkscape:version="0.92.2 2405546, 2018-03-11"
   sodipodi:docname="rundebug.svg">
  <defs
     id="defs1031" />
  <sodipodi:namedview
     id="base"
     pagecolor="#ffffff"
     bordercolor="#666666"
     borderopacity="1.0"
     inkscape:pageopacity="0.0"
     inkscape:pageshadow="2"
     inkscape:zoom="1"
     inkscape:cx="-36.791948"
     inkscape:cy="100.33459"
     inkscape:document-units="px"
     inkscape:current-layer="layer1"
     showgrid="false"
     units="px"
     inkscape:window-width="1366"
     inkscape:window-height="740"
     inkscape:window-x="0"
     inkscape:window-y="28"
     inkscape:window-maximized="1"
     showguides="true"
     inkscape:guide-bbox="true" />
  <metadata
     id="metadata1034">
    <rdf:RDF>
      <cc:Work
         rdf:about="">
        <dc:format>image/svg+xml</dc:format>
        <dc:type
           rdf:resource="http://purl.org/dc/dcmitype/StillImage" />
        <dc:title></dc:title>
      </cc:Work>
    </rdf:RDF>
  </metadata>
  <g
     inkscape:label="Layer 1"
     inkscape:groupmode="layer"
     id="layer1"
     transform="translate(0,-281.38957)">
    <path
       style="opacity:1;fill:#45ca6e;fill-opacity:1;stroke:none;stroke-width:1.61745238;stroke-linecap:round;stroke-linejoin:round;stroke-miterlimit:4;stroke-dasharray:none;stroke-opacity:1"
       d="M 12.8125,10.230469 V 29.5 48.769531 l 14.261719,-8.234375 c -0.829404,-0.571266 -1.376953,-1.526627 -1.376953,-2.605468 0,-1.73962 1.418597,-3.160157 3.158203,-3.160157 1.659329,0 3.013899,1.296767 3.136719,2.925781 L 46.1875,29.5 29.5,19.865234 Z"
       transform="matrix(0.26458334,0,0,0.26458334,0,281.38957)"
       id="path1472"
       inkscape:connector-curvature="0"
       sodipodi:nodetypes="ccccsscccc" />
    <path
       style="opacity:1;fill:#ca4551;fill-opacity:1;stroke:none;stroke-width:1.4000001;stroke-linecap:butt;stroke-linejoin:miter;stroke-miterlimit:4;stroke-dasharray:4.20000022, 4.20000022;stroke-dashoffset:0;stroke-opacity:1"
       d="m 76.939453,10.230469 c -4.270872,0 -7.708984,3.438112 -7.708984,7.708984 v 23.121094 c 0,4.270872 3.438112,7.708984 7.708984,7.708984 H 86.625 c 0.01098,-0.986069 0.665366,-1.891127 1.662109,-2.158203 0.993311,-0.266156 2.009256,0.186189 2.513672,1.029297 -0.608888,-1.6419 -0.613978,-3.142479 -0.318359,-4.367187 0.525111,-2.175463 1.882812,-3.529297 1.882812,-3.529297 0.0829,-0.08327 0.195014,-0.13092 0.3125,-0.132813 0.0033,-3.5e-5 0.0065,-3.5e-5 0.0098,0 3.54e-4,-0.118565 0.04736,-0.232227 0.130859,-0.316406 0,0 1.349933,-1.359662 3.525391,-1.884766 1.222257,-0.295023 2.720429,-0.29266 4.35937,0.3125 -0.836318,-0.507302 -1.284612,-1.520457 -1.019526,-2.509765 0.281047,-1.048894 1.267156,-1.729405 2.312496,-1.667969 0.14934,0.0088 0.29938,0.03212 0.44922,0.07227 1.19873,0.321196 1.9169,1.564953 1.59571,2.763671 -0.3116,1.162896 -1.49158,1.866904 -2.65625,1.615235 1.07688,0.503386 2.20443,1.27475 3.35546,2.425781 1.15186,1.151858 1.92439,2.279841 2.42774,3.357422 -0.16374,-0.749777 0.0726,-1.501846 0.56836,-2.029297 0.02,-0.227281 0.0332,-0.45681 0.0332,-0.689453 v -0.585938 c -0.86574,0.514511 -2.00525,0.406849 -2.74805,-0.335937 -0.87754,-0.877538 -0.87752,-2.313868 0,-3.191406 0.43877,-0.438445 1.01694,-0.657696 1.59571,-0.658204 0.40103,-3.51e-4 0.79806,0.113419 1.15234,0.324219 V 17.939453 c 0,-4.270872 -3.43811,-7.708984 -7.70898,-7.708984 z m 13.916016,24.539062 c 1.739606,0 3.160156,1.420537 3.160156,3.160157 0.0011,0.249929 -0.201241,0.453105 -0.451172,0.453124 -1.25195,0 -2.257812,1.003913 -2.257812,2.25586 0.0011,0.249929 -0.201241,0.453106 -0.451172,0.453125 -1.739606,0 -3.158203,-1.422508 -3.158203,-3.162109 0,-1.73962 1.418597,-3.160157 3.158203,-3.160157 z m 0.208984,13.53125 c 0.03476,0.156718 0.0494,0.313523 0.05078,0.46875 h 0.195313 c -0.08339,-0.156683 -0.174038,-0.314134 -0.246094,-0.46875 z"
       transform="matrix(0.26458334,0,0,0.26458334,0,281.38957)"
       id="rect3810"
       inkscape:connector-curvature="0"
       sodipodi:nodetypes="sssscscsccccscccccccccscccccssssccccsscccc" />
    <g
       transform="matrix(0.45139101,0,0,0.45139101,6.5362985,173.37684)"
       id="layer1-6-1"
       inkscape:label="Layer 1"
       style="stroke:none;stroke-opacity:1">
      <path
         style="opacity:1;fill:#9d9d9d;fill-opacity:1;stroke:none;stroke-width:0.90233064;stroke-linecap:round;stroke-linejoin:round;stroke-miterlimit:4;stroke-dasharray:none;stroke-opacity:1"
         d="M 39.939453 34.445312 C 39.30876 34.405776 38.72725 34.810531 38.556641 35.447266 C 38.361658 36.174945 38.78403 36.912438 39.511719 37.107422 C 40.239406 37.302406 40.976892 36.876133 41.171875 36.148438 C 41.366858 35.420758 40.940578 34.685218 40.212891 34.490234 C 40.12193 34.465861 40.029552 34.450961 39.939453 34.445312 z M 28.855469 35.673828 C 27.603518 35.673828 26.599609 36.677724 26.599609 37.929688 C 26.599609 39.094096 27.503946 39.968432 28.632812 40.095703 C 28.881809 38.851911 29.774235 37.955304 31.017578 37.705078 C 30.889989 36.576512 30.019657 35.673828 28.855469 35.673828 z M 44.617188 37.1875 C 44.271473 37.188008 43.926513 37.321534 43.660156 37.587891 C 43.127454 38.120603 43.127442 38.969241 43.660156 39.501953 C 44.19287 40.034 45.041517 40.034666 45.574219 39.501953 C 46.106933 38.969241 46.106921 38.118632 45.574219 37.585938 C 45.307862 37.319257 44.962901 37.186992 44.617188 37.1875 z M 36.119141 38.103516 C 35.557769 38.10093 35.035459 38.173488 34.556641 38.289062 C 32.898357 38.689352 32.139635 39.466069 31.871094 39.710938 L 43.451172 51.291016 C 43.696044 51.022467 44.472771 50.263744 44.873047 48.605469 C 45.335354 46.690195 45.117868 44.076868 42.101562 41.060547 C 39.839333 38.798319 37.803256 38.111274 36.119141 38.103516 z M 30.78125 40.798828 C 30.535871 41.067991 29.759473 41.826816 29.359375 43.484375 C 28.897068 45.399632 29.114552 48.014946 32.130859 51.03125 C 35.147166 54.047571 37.762461 54.265055 39.677734 53.802734 C 41.335281 53.40265 42.096063 52.62624 42.365234 52.380859 L 30.78125 40.798828 z M 47.285156 41.947266 C 47.195058 41.952914 47.104633 41.967815 47.013672 41.992188 C 46.285982 42.18717 45.857747 42.920741 46.052734 43.648438 C 46.247717 44.376133 46.987156 44.802406 47.714844 44.607422 C 48.442532 44.412438 48.864904 43.674945 48.669922 42.947266 C 48.499308 42.310516 47.915847 41.907725 47.285156 41.947266 z M 26.792969 47.4375 C 26.702782 47.443172 26.612445 47.458049 26.521484 47.482422 C 25.793796 47.677406 25.369466 48.410976 25.564453 49.138672 C 25.759436 49.866368 26.493014 50.290687 27.220703 50.095703 C 27.94839 49.900719 28.374669 49.165179 28.179688 48.4375 C 28.009074 47.800751 27.424277 47.397793 26.792969 47.4375 z M 29.617188 52.1875 C 29.272063 52.187502 28.926508 52.31959 28.660156 52.585938 C 28.127452 53.118632 28.125488 53.969241 28.658203 54.501953 C 29.190906 55.034649 30.043469 55.034649 30.576172 54.501953 C 31.108873 53.969241 31.106921 53.118632 30.574219 52.585938 C 30.307861 52.319581 29.962311 52.187498 29.617188 52.1875 z M 34.449219 54.9375 C 33.818525 54.897962 33.235063 55.302719 33.064453 55.939453 C 32.86947 56.667132 33.291843 57.404626 34.019531 57.599609 C 34.747218 57.794593 35.486658 57.368321 35.681641 56.640625 C 35.876623 55.912946 35.44839 55.177406 34.720703 54.982422 C 34.629742 54.958049 34.539318 54.943148 34.449219 54.9375 z "
         transform="matrix(0.58615111,0,0,0.58615111,-14.480347,239.28862)"
         id="path6615-9" />
    </g>
    <g
       style="stroke:#eaeaea;stroke-opacity:1"
       inkscape:label="Layer 1"
       id="g3854"
       transform="matrix(0.45139101,0,0,0.45139101,22.940466,162.7935)">
      <path
         style="opacity:1;fill:#b50000;fill-opacity:1;stroke:none;stroke-width:0.90233064;stroke-linecap:round;stroke-linejoin:round;stroke-miterlimit:4;stroke-dasharray:none;stroke-opacity:1"
         d="M 101.93945 34.445312 C 101.30876 34.405776 100.72725 34.810531 100.55664 35.447266 C 100.36166 36.174945 100.78403 36.912438 101.51172 37.107422 C 102.23941 37.302406 102.97689 36.876133 103.17188 36.148438 C 103.36685 35.420758 102.94058 34.685218 102.21289 34.490234 C 102.12193 34.465861 102.02955 34.450961 101.93945 34.445312 z M 90.855469 35.673828 C 89.603518 35.673828 88.599609 36.677724 88.599609 37.929688 C 88.599609 39.094096 89.503946 39.968432 90.632812 40.095703 C 90.881809 38.851911 91.774235 37.955304 93.017578 37.705078 C 92.889989 36.576512 92.019657 35.673828 90.855469 35.673828 z M 106.61719 37.1875 C 106.27147 37.188008 105.92651 37.321534 105.66016 37.587891 C 105.12745 38.120603 105.12744 38.969241 105.66016 39.501953 C 106.19287 40.034 107.04152 40.034666 107.57422 39.501953 C 108.10693 38.969241 108.10692 38.118632 107.57422 37.585938 C 107.30786 37.319257 106.9629 37.186992 106.61719 37.1875 z M 98.119141 38.103516 C 97.557769 38.10093 97.035459 38.173488 96.556641 38.289062 C 94.898357 38.689352 94.139635 39.466069 93.871094 39.710938 L 105.45117 51.291016 C 105.69604 51.022467 106.47277 50.263744 106.87305 48.605469 C 107.33535 46.690195 107.11787 44.076868 104.10156 41.060547 C 101.83933 38.798319 99.803256 38.111274 98.119141 38.103516 z M 92.78125 40.798828 C 92.535871 41.067991 91.759473 41.826816 91.359375 43.484375 C 90.897068 45.399632 91.114552 48.014946 94.130859 51.03125 C 97.147166 54.047571 99.762465 54.265055 101.67773 53.802734 C 103.33528 53.40265 104.09606 52.62624 104.36523 52.380859 L 92.78125 40.798828 z M 109.28516 41.947266 C 109.19506 41.952914 109.10463 41.967815 109.01367 41.992188 C 108.28598 42.18717 107.85775 42.920741 108.05273 43.648438 C 108.24772 44.376133 108.98716 44.802406 109.71484 44.607422 C 110.44253 44.412438 110.8649 43.674945 110.66992 42.947266 C 110.49931 42.310516 109.91585 41.907725 109.28516 41.947266 z M 88.792969 47.4375 C 88.702782 47.443172 88.612445 47.458049 88.521484 47.482422 C 87.793796 47.677406 87.369466 48.410976 87.564453 49.138672 C 87.759436 49.866368 88.493014 50.290687 89.220703 50.095703 C 89.94839 49.900719 90.374669 49.165179 90.179688 48.4375 C 90.009074 47.800751 89.424277 47.397793 88.792969 47.4375 z M 91.617188 52.1875 C 91.272063 52.187502 90.926508 52.31959 90.660156 52.585938 C 90.127452 53.118632 90.125488 53.969241 90.658203 54.501953 C 91.190906 55.034649 92.043469 55.034649 92.576172 54.501953 C 93.108873 53.969241 93.106921 53.118632 92.574219 52.585938 C 92.307861 52.319581 91.962311 52.187498 91.617188 52.1875 z M 96.449219 54.9375 C 95.818525 54.897962 95.235063 55.302719 95.064453 55.939453 C 94.86947 56.667132 95.291843 57.404626 96.019531 57.599609 C 96.747218 57.794593 97.486658 57.368321 97.681641 56.640625 C 97.876623 55.912946 97.44839 55.177406 96.720703 54.982422 C 96.629742 54.958049 96.539318 54.943148 96.449219 54.9375 z "
         transform="matrix(0.58615111,0,0,0.58615111,-50.821717,262.73467)"
         id="path3836" />
    </g>
    <g
       transform="matrix(0.45139101,0,0,0.45139101,6.5362985,162.7935)"
       id="g3894"
       inkscape:label="Layer 1"
       style="stroke:#eaeaea;stroke-opacity:1" />
    <g
       style="stroke:#eaeaea;stroke-opacity:1"
       inkscape:label="Layer 1"
       id="g3936"
       transform="matrix(0.45139101,0,0,0.45139101,6.5362985,162.7935)" />
    <g
       transform="matrix(0.45139101,0,0,0.45139101,22.940466,162.7935)"
       id="g4008"
       inkscape:label="Layer 1"
       style="stroke:#eaeaea;stroke-opacity:1" />
    <g
       transform="matrix(0.45139101,0,0,0.45139101,22.940466,162.7935)"
       id="g4048"
       inkscape:label="Layer 1"
       style="stroke:#eaeaea;stroke-opacity:1" />
  </g>
</svg>
