<?xml version="1.0" encoding="UTF-8" standalone="no"?>
<!-- Created with Inkscape (http://www.inkscape.org/) -->

<svg
   xmlns:dc="http://purl.org/dc/elements/1.1/"
   xmlns:cc="http://creativecommons.org/ns#"
   xmlns:rdf="http://www.w3.org/1999/02/22-rdf-syntax-ns#"
   xmlns:svg="http://www.w3.org/2000/svg"
   xmlns="http://www.w3.org/2000/svg"
   xmlns:sodipodi="http://sodipodi.sourceforge.net/DTD/sodipodi-0.dtd"
   xmlns:inkscape="http://www.inkscape.org/namespaces/inkscape"
   width="18"
   height="18"
   viewBox="0 0 4.7624999 4.7625001"
   version="1.1"
   id="svg3111"
   inkscape:version="0.92.2 5c3e80d, 2017-08-06"
   sodipodi:docname="blank_favicon.svg">
  <defs
     id="defs3105" />
  <sodipodi:namedview
     id="base"
     pagecolor="#ffffff"
     bordercolor="#666666"
     borderopacity="1.0"
     inkscape:pageopacity="0.0"
     inkscape:pageshadow="2"
     inkscape:zoom="31.678384"
     inkscape:cx="14.594328"
     inkscape:cy="8.4742178"
     inkscape:document-units="px"
     inkscape:current-layer="layer1"
     showgrid="false"
     units="px"
     inkscape:window-width="1920"
     inkscape:window-height="1019"
     inkscape:window-x="1920"
     inkscape:window-y="0"
     inkscape:window-maximized="1" />
  <metadata
     id="metadata3108">
    <rdf:RDF>
      <cc:Work
         rdf:about="">
        <dc:format>image/svg+xml</dc:format>
        <dc:type
           rdf:resource="http://purl.org/dc/dcmitype/StillImage" />
        <dc:title />
      </cc:Work>
    </rdf:RDF>
  </metadata>
  <g
     inkscape:label="Layer 1"
     inkscape:groupmode="layer"
     id="layer1"
     transform="translate(0,-292.23748)">
    <g
       id="g3680"
       transform="matrix(1.3097683,0,0,1.3097683,-0.51176414,-91.257366)">
      <circle
         r="1.4837703"
         cy="294.61401"
         cx="2.2087984"
         id="path4591"
         style="opacity:1;fill:none;fill-opacity:1;stroke:#003cc5;stroke-width:0.26458332;stroke-linecap:butt;stroke-linejoin:bevel;stroke-miterlimit:4;stroke-dasharray:none;stroke-dashoffset:0;stroke-opacity:1;paint-order:normal" />
      <path
         sodipodi:nodetypes="cssscccccccc"
         inkscape:connector-curvature="0"
         id="path5199"
         d="m 1.4336481,293.45835 c 0,0 0.257246,0.31571 0.175395,0.42095 -0.08185,0.10524 -0.0864,0.16729 -0.01169,0.25725 0.0651,0.0784 0.365443,0.37172 0.432644,0.40926 0.07889,0.0441 0.304019,0.1637 0.280633,-0.12863 -0.02339,-0.29232 -0.152011,-0.17539 0.07016,-0.37417 0.222167,-0.19879 0.315714,-0.19879 0.280632,-0.3508 -0.03508,-0.15201 -0.01169,-0.14031 0.105238,-0.22216 0.11693,-0.0818 0.152012,-0.12863 0.152012,-0.12863 0,0 -0.362485,-0.22216 -0.806821,-0.17539 -0.444336,0.0468 -0.678196,0.29232 -0.678196,0.29232 z"
         style="opacity:1;fill:#003cc5;fill-opacity:1;stroke:none;stroke-width:0.26458332;stroke-linecap:butt;stroke-linejoin:miter;stroke-miterlimit:4;stroke-dasharray:none;stroke-dashoffset:0;stroke-opacity:1;paint-order:normal" />
      <path
         sodipodi:nodetypes="cccccccc"
         inkscape:connector-curvature="0"
         id="path5201"
         d="m 2.3457041,294.7212 c 0.222168,0.1637 0.420949,0.35079 0.397563,0.52619 -0.02339,0.17539 -0.03508,0.24555 -0.210473,0.37418 -0.175398,0.12862 -0.163703,0.40925 -0.163703,0.40925 0,0 0.397562,0.0468 0.596344,-0.14031 0.198781,-0.18709 0.2806331,-0.26894 0.268941,-0.58466 -0.01169,-0.31571 -0.05846,-0.42095 -0.339098,-0.51449 -0.280633,-0.0935 -0.549574,-0.0702 -0.549574,-0.0702 z"
         style="opacity:1;fill:#003cc5;fill-opacity:1;stroke:none;stroke-width:0.26458332;stroke-linecap:butt;stroke-linejoin:miter;stroke-miterlimit:4;stroke-dasharray:none;stroke-dashoffset:0;stroke-opacity:1;paint-order:normal" />
    </g>
  </g>
</svg>
